<mxfile host="app.diagrams.net" modified="2024-06-17T05:39:02.426Z" agent="Mozilla/5.0 (Windows NT 10.0; Win64; x64) AppleWebKit/537.36 (KHTML, like Gecko) Chrome/125.0.0.0 Safari/537.36" etag="NMmmw53jXuJn19nMWJQm" version="24.0.1" type="device">
  <diagram name="PÃ¡gina-1" id="hcWgy5PvwUK4jgUH3Iff">
    <mxGraphModel dx="2440" dy="1292" grid="1" gridSize="10" guides="1" tooltips="1" connect="1" arrows="1" fold="1" page="1" pageScale="1" pageWidth="1654" pageHeight="1169" math="0" shadow="0">
      <root>
        <mxCell id="0" />
        <mxCell id="1" parent="0" />
        <mxCell id="spRLWSc7RttgzbPWyASP-35" style="rounded=0;orthogonalLoop=1;jettySize=auto;html=1;entryX=0.5;entryY=0;entryDx=0;entryDy=0;" parent="1" target="spRLWSc7RttgzbPWyASP-2" edge="1" source="spRLWSc7RttgzbPWyASP-1">
          <mxGeometry relative="1" as="geometry">
            <mxPoint x="674" y="310" as="sourcePoint" />
          </mxGeometry>
        </mxCell>
        <mxCell id="7oj9rfEBmh7q5hDcnRv2-73" value="sd" style="edgeLabel;html=1;align=center;verticalAlign=middle;resizable=0;points=[];" vertex="1" connectable="0" parent="spRLWSc7RttgzbPWyASP-35">
          <mxGeometry x="-0.0028" y="-3" relative="1" as="geometry">
            <mxPoint as="offset" />
          </mxGeometry>
        </mxCell>
        <mxCell id="spRLWSc7RttgzbPWyASP-36" style="rounded=0;orthogonalLoop=1;jettySize=auto;html=1;entryX=0.5;entryY=0;entryDx=0;entryDy=0;" parent="1" target="spRLWSc7RttgzbPWyASP-3" edge="1" source="spRLWSc7RttgzbPWyASP-1">
          <mxGeometry relative="1" as="geometry">
            <mxPoint x="674" y="310" as="sourcePoint" />
          </mxGeometry>
        </mxCell>
        <mxCell id="7oj9rfEBmh7q5hDcnRv2-74" value="sd" style="edgeLabel;html=1;align=center;verticalAlign=middle;resizable=0;points=[];" vertex="1" connectable="0" parent="spRLWSc7RttgzbPWyASP-36">
          <mxGeometry x="0.0841" y="1" relative="1" as="geometry">
            <mxPoint as="offset" />
          </mxGeometry>
        </mxCell>
        <mxCell id="spRLWSc7RttgzbPWyASP-37" style="rounded=0;orthogonalLoop=1;jettySize=auto;html=1;entryX=0.5;entryY=0;entryDx=0;entryDy=0;" parent="1" target="spRLWSc7RttgzbPWyASP-4" edge="1" source="spRLWSc7RttgzbPWyASP-1">
          <mxGeometry relative="1" as="geometry">
            <mxPoint x="674" y="310" as="sourcePoint" />
          </mxGeometry>
        </mxCell>
        <mxCell id="7oj9rfEBmh7q5hDcnRv2-75" value="sd" style="edgeLabel;html=1;align=center;verticalAlign=middle;resizable=0;points=[];" vertex="1" connectable="0" parent="spRLWSc7RttgzbPWyASP-37">
          <mxGeometry x="0.1056" y="2" relative="1" as="geometry">
            <mxPoint as="offset" />
          </mxGeometry>
        </mxCell>
        <mxCell id="spRLWSc7RttgzbPWyASP-38" style="rounded=0;orthogonalLoop=1;jettySize=auto;html=1;exitX=0.25;exitY=1;exitDx=0;exitDy=0;entryX=0.5;entryY=0;entryDx=0;entryDy=0;" parent="1" target="spRLWSc7RttgzbPWyASP-5" edge="1" source="spRLWSc7RttgzbPWyASP-1">
          <mxGeometry relative="1" as="geometry">
            <mxPoint x="674" y="310" as="sourcePoint" />
          </mxGeometry>
        </mxCell>
        <mxCell id="7oj9rfEBmh7q5hDcnRv2-76" value="sd" style="edgeLabel;html=1;align=center;verticalAlign=middle;resizable=0;points=[];" vertex="1" connectable="0" parent="spRLWSc7RttgzbPWyASP-38">
          <mxGeometry x="0.0467" y="6" relative="1" as="geometry">
            <mxPoint x="-1" as="offset" />
          </mxGeometry>
        </mxCell>
        <mxCell id="spRLWSc7RttgzbPWyASP-40" value="sd" style="rounded=0;orthogonalLoop=1;jettySize=auto;html=1;entryX=0.5;entryY=0;entryDx=0;entryDy=0;" parent="1" target="spRLWSc7RttgzbPWyASP-7" edge="1" source="spRLWSc7RttgzbPWyASP-1">
          <mxGeometry relative="1" as="geometry">
            <mxPoint x="674" y="310" as="sourcePoint" />
          </mxGeometry>
        </mxCell>
        <mxCell id="spRLWSc7RttgzbPWyASP-42" style="rounded=0;orthogonalLoop=1;jettySize=auto;html=1;entryX=0.5;entryY=0;entryDx=0;entryDy=0;" parent="1" target="spRLWSc7RttgzbPWyASP-9" edge="1" source="spRLWSc7RttgzbPWyASP-1">
          <mxGeometry relative="1" as="geometry">
            <mxPoint x="674" y="310" as="sourcePoint" />
          </mxGeometry>
        </mxCell>
        <mxCell id="7oj9rfEBmh7q5hDcnRv2-78" value="sd" style="edgeLabel;html=1;align=center;verticalAlign=middle;resizable=0;points=[];" vertex="1" connectable="0" parent="spRLWSc7RttgzbPWyASP-42">
          <mxGeometry x="-0.129" y="-3" relative="1" as="geometry">
            <mxPoint x="-1" as="offset" />
          </mxGeometry>
        </mxCell>
        <mxCell id="spRLWSc7RttgzbPWyASP-77" value="sd" style="rounded=0;orthogonalLoop=1;jettySize=auto;html=1;exitX=0.5;exitY=1;exitDx=0;exitDy=0;entryX=0.5;entryY=0;entryDx=0;entryDy=0;" parent="1" source="spRLWSc7RttgzbPWyASP-1" target="spRLWSc7RttgzbPWyASP-6" edge="1">
          <mxGeometry relative="1" as="geometry">
            <Array as="points">
              <mxPoint x="920" y="270" />
            </Array>
          </mxGeometry>
        </mxCell>
        <mxCell id="7oj9rfEBmh7q5hDcnRv2-10" style="rounded=0;orthogonalLoop=1;jettySize=auto;html=1;" edge="1" parent="1" source="spRLWSc7RttgzbPWyASP-1" target="7oj9rfEBmh7q5hDcnRv2-9">
          <mxGeometry relative="1" as="geometry" />
        </mxCell>
        <mxCell id="7oj9rfEBmh7q5hDcnRv2-77" value="sd" style="edgeLabel;html=1;align=center;verticalAlign=middle;resizable=0;points=[];" vertex="1" connectable="0" parent="7oj9rfEBmh7q5hDcnRv2-10">
          <mxGeometry x="0.0182" y="-4" relative="1" as="geometry">
            <mxPoint as="offset" />
          </mxGeometry>
        </mxCell>
        <mxCell id="7oj9rfEBmh7q5hDcnRv2-30" value="sd" style="rounded=0;orthogonalLoop=1;jettySize=auto;html=1;" edge="1" parent="1" source="spRLWSc7RttgzbPWyASP-1" target="spRLWSc7RttgzbPWyASP-8">
          <mxGeometry relative="1" as="geometry">
            <Array as="points">
              <mxPoint x="1170" y="260" />
            </Array>
          </mxGeometry>
        </mxCell>
        <mxCell id="spRLWSc7RttgzbPWyASP-1" value="Videojuegos" style="rounded=1;whiteSpace=wrap;html=1;" parent="1" vertex="1">
          <mxGeometry x="774" y="170" width="106" height="40" as="geometry" />
        </mxCell>
        <mxCell id="spRLWSc7RttgzbPWyASP-43" style="rounded=0;orthogonalLoop=1;jettySize=auto;html=1;exitX=0.5;exitY=1;exitDx=0;exitDy=0;entryX=0.5;entryY=0;entryDx=0;entryDy=0;" parent="1" source="spRLWSc7RttgzbPWyASP-2" target="spRLWSc7RttgzbPWyASP-10" edge="1">
          <mxGeometry relative="1" as="geometry" />
        </mxCell>
        <mxCell id="7oj9rfEBmh7q5hDcnRv2-52" value="id" style="edgeLabel;html=1;align=center;verticalAlign=middle;resizable=0;points=[];" vertex="1" connectable="0" parent="spRLWSc7RttgzbPWyASP-43">
          <mxGeometry x="-0.0682" y="-3" relative="1" as="geometry">
            <mxPoint as="offset" />
          </mxGeometry>
        </mxCell>
        <mxCell id="spRLWSc7RttgzbPWyASP-2" value="Plataforma_Juego" style="rounded=1;whiteSpace=wrap;html=1;" parent="1" vertex="1">
          <mxGeometry x="46" y="320" width="106" height="40" as="geometry" />
        </mxCell>
        <mxCell id="spRLWSc7RttgzbPWyASP-46" style="rounded=0;orthogonalLoop=1;jettySize=auto;html=1;exitX=0.5;exitY=1;exitDx=0;exitDy=0;entryX=0.5;entryY=0;entryDx=0;entryDy=0;" parent="1" source="spRLWSc7RttgzbPWyASP-3" target="spRLWSc7RttgzbPWyASP-14" edge="1">
          <mxGeometry relative="1" as="geometry" />
        </mxCell>
        <mxCell id="7oj9rfEBmh7q5hDcnRv2-53" value="id" style="edgeLabel;html=1;align=center;verticalAlign=middle;resizable=0;points=[];" vertex="1" connectable="0" parent="spRLWSc7RttgzbPWyASP-46">
          <mxGeometry x="0.0259" y="-5" relative="1" as="geometry">
            <mxPoint as="offset" />
          </mxGeometry>
        </mxCell>
        <mxCell id="spRLWSc7RttgzbPWyASP-3" value="Carreras" style="rounded=1;whiteSpace=wrap;html=1;" parent="1" vertex="1">
          <mxGeometry x="192" y="320" width="106" height="40" as="geometry" />
        </mxCell>
        <mxCell id="spRLWSc7RttgzbPWyASP-49" style="rounded=0;orthogonalLoop=1;jettySize=auto;html=1;exitX=0.5;exitY=1;exitDx=0;exitDy=0;entryX=0.5;entryY=0;entryDx=0;entryDy=0;" parent="1" source="spRLWSc7RttgzbPWyASP-4" target="spRLWSc7RttgzbPWyASP-17" edge="1">
          <mxGeometry relative="1" as="geometry" />
        </mxCell>
        <mxCell id="7oj9rfEBmh7q5hDcnRv2-54" value="id" style="edgeLabel;html=1;align=center;verticalAlign=middle;resizable=0;points=[];" vertex="1" connectable="0" parent="spRLWSc7RttgzbPWyASP-49">
          <mxGeometry x="-0.3459" y="1" relative="1" as="geometry">
            <mxPoint as="offset" />
          </mxGeometry>
        </mxCell>
        <mxCell id="spRLWSc7RttgzbPWyASP-4" value="Aventura" style="rounded=1;whiteSpace=wrap;html=1;" parent="1" vertex="1">
          <mxGeometry x="361" y="320" width="106" height="40" as="geometry" />
        </mxCell>
        <mxCell id="spRLWSc7RttgzbPWyASP-52" style="rounded=0;orthogonalLoop=1;jettySize=auto;html=1;exitX=0.5;exitY=1;exitDx=0;exitDy=0;entryX=0.5;entryY=0;entryDx=0;entryDy=0;" parent="1" source="spRLWSc7RttgzbPWyASP-5" target="spRLWSc7RttgzbPWyASP-20" edge="1">
          <mxGeometry relative="1" as="geometry" />
        </mxCell>
        <mxCell id="7oj9rfEBmh7q5hDcnRv2-56" value="id" style="edgeLabel;html=1;align=center;verticalAlign=middle;resizable=0;points=[];" vertex="1" connectable="0" parent="spRLWSc7RttgzbPWyASP-52">
          <mxGeometry x="0.0195" y="4" relative="1" as="geometry">
            <mxPoint as="offset" />
          </mxGeometry>
        </mxCell>
        <mxCell id="spRLWSc7RttgzbPWyASP-5" value="RPG" style="rounded=1;whiteSpace=wrap;html=1;" parent="1" vertex="1">
          <mxGeometry x="520" y="320" width="106" height="40" as="geometry" />
        </mxCell>
        <mxCell id="7oj9rfEBmh7q5hDcnRv2-15" style="rounded=0;orthogonalLoop=1;jettySize=auto;html=1;" edge="1" parent="1" source="spRLWSc7RttgzbPWyASP-6" target="spRLWSc7RttgzbPWyASP-26">
          <mxGeometry relative="1" as="geometry" />
        </mxCell>
        <mxCell id="7oj9rfEBmh7q5hDcnRv2-64" value="id" style="edgeLabel;html=1;align=center;verticalAlign=middle;resizable=0;points=[];" vertex="1" connectable="0" parent="7oj9rfEBmh7q5hDcnRv2-15">
          <mxGeometry x="-0.2155" y="-4" relative="1" as="geometry">
            <mxPoint as="offset" />
          </mxGeometry>
        </mxCell>
        <mxCell id="spRLWSc7RttgzbPWyASP-6" value="BattleRoyale" style="rounded=1;whiteSpace=wrap;html=1;" parent="1" vertex="1">
          <mxGeometry x="950" y="320" width="106" height="40" as="geometry" />
        </mxCell>
        <mxCell id="7oj9rfEBmh7q5hDcnRv2-17" style="rounded=0;orthogonalLoop=1;jettySize=auto;html=1;" edge="1" parent="1" source="spRLWSc7RttgzbPWyASP-7" target="spRLWSc7RttgzbPWyASP-29">
          <mxGeometry relative="1" as="geometry" />
        </mxCell>
        <mxCell id="7oj9rfEBmh7q5hDcnRv2-65" value="id" style="edgeLabel;html=1;align=center;verticalAlign=middle;resizable=0;points=[];" vertex="1" connectable="0" parent="7oj9rfEBmh7q5hDcnRv2-17">
          <mxGeometry x="-0.1235" y="4" relative="1" as="geometry">
            <mxPoint as="offset" />
          </mxGeometry>
        </mxCell>
        <mxCell id="spRLWSc7RttgzbPWyASP-7" value="Sandbox" style="rounded=1;whiteSpace=wrap;html=1;" parent="1" vertex="1">
          <mxGeometry x="1107" y="320" width="106" height="40" as="geometry" />
        </mxCell>
        <mxCell id="7oj9rfEBmh7q5hDcnRv2-19" style="rounded=0;orthogonalLoop=1;jettySize=auto;html=1;" edge="1" parent="1" source="spRLWSc7RttgzbPWyASP-8" target="spRLWSc7RttgzbPWyASP-32">
          <mxGeometry relative="1" as="geometry" />
        </mxCell>
        <mxCell id="7oj9rfEBmh7q5hDcnRv2-67" value="id" style="edgeLabel;html=1;align=center;verticalAlign=middle;resizable=0;points=[];" vertex="1" connectable="0" parent="7oj9rfEBmh7q5hDcnRv2-19">
          <mxGeometry x="0.0695" y="-1" relative="1" as="geometry">
            <mxPoint as="offset" />
          </mxGeometry>
        </mxCell>
        <mxCell id="spRLWSc7RttgzbPWyASP-8" value="Simulacion" style="rounded=1;whiteSpace=wrap;html=1;strokeColor=default;shadow=1;textShadow=1;" parent="1" vertex="1">
          <mxGeometry x="1470" y="320" width="106" height="40" as="geometry" />
        </mxCell>
        <mxCell id="7oj9rfEBmh7q5hDcnRv2-18" style="rounded=0;orthogonalLoop=1;jettySize=auto;html=1;" edge="1" parent="1" source="spRLWSc7RttgzbPWyASP-9" target="spRLWSc7RttgzbPWyASP-72">
          <mxGeometry relative="1" as="geometry">
            <mxPoint x="1387" y="-29.608695652173765" as="sourcePoint" />
          </mxGeometry>
        </mxCell>
        <mxCell id="7oj9rfEBmh7q5hDcnRv2-66" value="id" style="edgeLabel;html=1;align=center;verticalAlign=middle;resizable=0;points=[];" vertex="1" connectable="0" parent="7oj9rfEBmh7q5hDcnRv2-18">
          <mxGeometry x="0.0529" y="3" relative="1" as="geometry">
            <mxPoint as="offset" />
          </mxGeometry>
        </mxCell>
        <mxCell id="spRLWSc7RttgzbPWyASP-9" value="Estrategia" style="rounded=1;whiteSpace=wrap;html=1;" parent="1" vertex="1">
          <mxGeometry x="1270" y="320" width="106" height="40" as="geometry" />
        </mxCell>
        <mxCell id="spRLWSc7RttgzbPWyASP-10" value="SuperMario" style="rounded=1;whiteSpace=wrap;html=1;" parent="1" vertex="1">
          <mxGeometry x="46" y="410" width="106" height="40" as="geometry" />
        </mxCell>
        <mxCell id="spRLWSc7RttgzbPWyASP-45" style="rounded=0;orthogonalLoop=1;jettySize=auto;html=1;entryX=0.5;entryY=0;entryDx=0;entryDy=0;" parent="1" source="spRLWSc7RttgzbPWyASP-10" target="spRLWSc7RttgzbPWyASP-12" edge="1">
          <mxGeometry relative="1" as="geometry">
            <mxPoint x="177" y="300" as="sourcePoint" />
          </mxGeometry>
        </mxCell>
        <mxCell id="7oj9rfEBmh7q5hDcnRv2-42" value="lanzado" style="edgeLabel;html=1;align=center;verticalAlign=middle;resizable=0;points=[];" vertex="1" connectable="0" parent="spRLWSc7RttgzbPWyASP-45">
          <mxGeometry x="0.0751" y="3" relative="1" as="geometry">
            <mxPoint as="offset" />
          </mxGeometry>
        </mxCell>
        <mxCell id="spRLWSc7RttgzbPWyASP-47" style="rounded=0;orthogonalLoop=1;jettySize=auto;html=1;exitX=0.5;exitY=1;exitDx=0;exitDy=0;" parent="1" source="spRLWSc7RttgzbPWyASP-14" target="spRLWSc7RttgzbPWyASP-15" edge="1">
          <mxGeometry relative="1" as="geometry" />
        </mxCell>
        <mxCell id="7oj9rfEBmh7q5hDcnRv2-59" value="plataforma" style="edgeLabel;html=1;align=center;verticalAlign=middle;resizable=0;points=[];" vertex="1" connectable="0" parent="spRLWSc7RttgzbPWyASP-47">
          <mxGeometry x="0.0387" y="4" relative="1" as="geometry">
            <mxPoint as="offset" />
          </mxGeometry>
        </mxCell>
        <mxCell id="spRLWSc7RttgzbPWyASP-14" value="Mario Kart" style="rounded=1;whiteSpace=wrap;html=1;" parent="1" vertex="1">
          <mxGeometry x="192" y="410" width="106" height="40" as="geometry" />
        </mxCell>
        <mxCell id="spRLWSc7RttgzbPWyASP-48" style="rounded=0;orthogonalLoop=1;jettySize=auto;html=1;entryX=0.5;entryY=0;entryDx=0;entryDy=0;" parent="1" source="spRLWSc7RttgzbPWyASP-14" target="spRLWSc7RttgzbPWyASP-16" edge="1">
          <mxGeometry relative="1" as="geometry" />
        </mxCell>
        <mxCell id="7oj9rfEBmh7q5hDcnRv2-44" value="lanzado" style="edgeLabel;html=1;align=center;verticalAlign=middle;resizable=0;points=[];" vertex="1" connectable="0" parent="spRLWSc7RttgzbPWyASP-48">
          <mxGeometry x="0.0979" y="-2" relative="1" as="geometry">
            <mxPoint as="offset" />
          </mxGeometry>
        </mxCell>
        <mxCell id="spRLWSc7RttgzbPWyASP-15" value="Nintendo" style="rounded=1;whiteSpace=wrap;html=1;" parent="1" vertex="1">
          <mxGeometry x="260" y="880" width="106" height="40" as="geometry" />
        </mxCell>
        <mxCell id="spRLWSc7RttgzbPWyASP-16" value="1992" style="rounded=1;whiteSpace=wrap;html=1;" parent="1" vertex="1">
          <mxGeometry x="190" y="560" width="106" height="40" as="geometry" />
        </mxCell>
        <mxCell id="7oj9rfEBmh7q5hDcnRv2-22" style="rounded=0;orthogonalLoop=1;jettySize=auto;html=1;" edge="1" parent="1" source="spRLWSc7RttgzbPWyASP-17" target="spRLWSc7RttgzbPWyASP-15">
          <mxGeometry relative="1" as="geometry" />
        </mxCell>
        <mxCell id="7oj9rfEBmh7q5hDcnRv2-60" value="plataforma" style="edgeLabel;html=1;align=center;verticalAlign=middle;resizable=0;points=[];" vertex="1" connectable="0" parent="7oj9rfEBmh7q5hDcnRv2-22">
          <mxGeometry x="-0.0102" y="5" relative="1" as="geometry">
            <mxPoint as="offset" />
          </mxGeometry>
        </mxCell>
        <mxCell id="spRLWSc7RttgzbPWyASP-17" value="Zelda" style="rounded=1;whiteSpace=wrap;html=1;" parent="1" vertex="1">
          <mxGeometry x="361" y="460" width="106" height="40" as="geometry" />
        </mxCell>
        <mxCell id="spRLWSc7RttgzbPWyASP-51" style="rounded=0;orthogonalLoop=1;jettySize=auto;html=1;entryX=0.5;entryY=0;entryDx=0;entryDy=0;" parent="1" source="spRLWSc7RttgzbPWyASP-17" target="spRLWSc7RttgzbPWyASP-19" edge="1">
          <mxGeometry relative="1" as="geometry" />
        </mxCell>
        <mxCell id="7oj9rfEBmh7q5hDcnRv2-45" value="lanzado" style="edgeLabel;html=1;align=center;verticalAlign=middle;resizable=0;points=[];" vertex="1" connectable="0" parent="spRLWSc7RttgzbPWyASP-51">
          <mxGeometry x="-0.0275" y="-1" relative="1" as="geometry">
            <mxPoint as="offset" />
          </mxGeometry>
        </mxCell>
        <mxCell id="spRLWSc7RttgzbPWyASP-19" value="1986" style="rounded=1;whiteSpace=wrap;html=1;" parent="1" vertex="1">
          <mxGeometry x="361" y="560" width="106" height="40" as="geometry" />
        </mxCell>
        <mxCell id="7oj9rfEBmh7q5hDcnRv2-23" style="rounded=0;orthogonalLoop=1;jettySize=auto;html=1;" edge="1" parent="1" source="spRLWSc7RttgzbPWyASP-20" target="spRLWSc7RttgzbPWyASP-15">
          <mxGeometry relative="1" as="geometry" />
        </mxCell>
        <mxCell id="7oj9rfEBmh7q5hDcnRv2-61" value="plataforma" style="edgeLabel;html=1;align=center;verticalAlign=middle;resizable=0;points=[];" vertex="1" connectable="0" parent="7oj9rfEBmh7q5hDcnRv2-23">
          <mxGeometry x="0.0532" y="1" relative="1" as="geometry">
            <mxPoint x="1" as="offset" />
          </mxGeometry>
        </mxCell>
        <mxCell id="spRLWSc7RttgzbPWyASP-20" value="Pokemon" style="rounded=1;whiteSpace=wrap;html=1;" parent="1" vertex="1">
          <mxGeometry x="520" y="720" width="106" height="40" as="geometry" />
        </mxCell>
        <mxCell id="spRLWSc7RttgzbPWyASP-54" style="rounded=0;orthogonalLoop=1;jettySize=auto;html=1;entryX=0.5;entryY=0;entryDx=0;entryDy=0;" parent="1" source="spRLWSc7RttgzbPWyASP-20" target="spRLWSc7RttgzbPWyASP-22" edge="1">
          <mxGeometry relative="1" as="geometry" />
        </mxCell>
        <mxCell id="7oj9rfEBmh7q5hDcnRv2-57" value="lanzado" style="edgeLabel;html=1;align=center;verticalAlign=middle;resizable=0;points=[];" vertex="1" connectable="0" parent="spRLWSc7RttgzbPWyASP-54">
          <mxGeometry x="-0.2314" y="2" relative="1" as="geometry">
            <mxPoint as="offset" />
          </mxGeometry>
        </mxCell>
        <mxCell id="spRLWSc7RttgzbPWyASP-22" value="1996" style="rounded=1;whiteSpace=wrap;html=1;" parent="1" vertex="1">
          <mxGeometry x="520" y="790" width="106" height="40" as="geometry" />
        </mxCell>
        <mxCell id="spRLWSc7RttgzbPWyASP-56" style="rounded=0;orthogonalLoop=1;jettySize=auto;html=1;exitX=0.5;exitY=1;exitDx=0;exitDy=0;entryX=0.5;entryY=0;entryDx=0;entryDy=0;" parent="1" source="spRLWSc7RttgzbPWyASP-23" target="spRLWSc7RttgzbPWyASP-24" edge="1">
          <mxGeometry relative="1" as="geometry" />
        </mxCell>
        <mxCell id="7oj9rfEBmh7q5hDcnRv2-62" value="plataforma" style="edgeLabel;html=1;align=center;verticalAlign=middle;resizable=0;points=[];" vertex="1" connectable="0" parent="spRLWSc7RttgzbPWyASP-56">
          <mxGeometry x="0.0028" y="-3" relative="1" as="geometry">
            <mxPoint as="offset" />
          </mxGeometry>
        </mxCell>
        <mxCell id="spRLWSc7RttgzbPWyASP-23" value="Call of duty" style="rounded=1;whiteSpace=wrap;html=1;" parent="1" vertex="1">
          <mxGeometry x="671" y="450" width="106" height="40" as="geometry" />
        </mxCell>
        <mxCell id="spRLWSc7RttgzbPWyASP-57" style="rounded=0;orthogonalLoop=1;jettySize=auto;html=1;entryX=0.5;entryY=0;entryDx=0;entryDy=0;" parent="1" source="spRLWSc7RttgzbPWyASP-23" target="spRLWSc7RttgzbPWyASP-25" edge="1">
          <mxGeometry relative="1" as="geometry" />
        </mxCell>
        <mxCell id="7oj9rfEBmh7q5hDcnRv2-46" value="lanzado" style="edgeLabel;html=1;align=center;verticalAlign=middle;resizable=0;points=[];" vertex="1" connectable="0" parent="spRLWSc7RttgzbPWyASP-57">
          <mxGeometry x="-0.0087" y="-1" relative="1" as="geometry">
            <mxPoint as="offset" />
          </mxGeometry>
        </mxCell>
        <mxCell id="spRLWSc7RttgzbPWyASP-24" value="Multiplataforma" style="rounded=1;whiteSpace=wrap;html=1;" parent="1" vertex="1">
          <mxGeometry x="1120" y="880" width="106" height="40" as="geometry" />
        </mxCell>
        <mxCell id="spRLWSc7RttgzbPWyASP-25" value="2003" style="rounded=1;whiteSpace=wrap;html=1;" parent="1" vertex="1">
          <mxGeometry x="641" y="560" width="106" height="40" as="geometry" />
        </mxCell>
        <mxCell id="7oj9rfEBmh7q5hDcnRv2-31" style="rounded=0;orthogonalLoop=1;jettySize=auto;html=1;" edge="1" parent="1" source="spRLWSc7RttgzbPWyASP-26" target="spRLWSc7RttgzbPWyASP-24">
          <mxGeometry relative="1" as="geometry" />
        </mxCell>
        <mxCell id="7oj9rfEBmh7q5hDcnRv2-69" value="plataforma" style="edgeLabel;html=1;align=center;verticalAlign=middle;resizable=0;points=[];" vertex="1" connectable="0" parent="7oj9rfEBmh7q5hDcnRv2-31">
          <mxGeometry x="0.0359" y="1" relative="1" as="geometry">
            <mxPoint as="offset" />
          </mxGeometry>
        </mxCell>
        <mxCell id="spRLWSc7RttgzbPWyASP-26" value="Fornite" style="rounded=1;whiteSpace=wrap;html=1;perimeter=rectanglePerimeter;" parent="1" vertex="1">
          <mxGeometry x="955" y="440" width="106" height="40" as="geometry" />
        </mxCell>
        <mxCell id="spRLWSc7RttgzbPWyASP-60" style="rounded=0;orthogonalLoop=1;jettySize=auto;html=1;entryX=0.5;entryY=0;entryDx=0;entryDy=0;" parent="1" source="spRLWSc7RttgzbPWyASP-26" target="spRLWSc7RttgzbPWyASP-28" edge="1">
          <mxGeometry relative="1" as="geometry">
            <mxPoint x="1204.0000000000005" y="539.94" as="sourcePoint" />
          </mxGeometry>
        </mxCell>
        <mxCell id="7oj9rfEBmh7q5hDcnRv2-48" value="lanzado" style="edgeLabel;html=1;align=center;verticalAlign=middle;resizable=0;points=[];" vertex="1" connectable="0" parent="spRLWSc7RttgzbPWyASP-60">
          <mxGeometry x="-0.1371" y="4" relative="1" as="geometry">
            <mxPoint x="1" as="offset" />
          </mxGeometry>
        </mxCell>
        <mxCell id="spRLWSc7RttgzbPWyASP-28" value="2017" style="rounded=1;whiteSpace=wrap;html=1;" parent="1" vertex="1">
          <mxGeometry x="893" y="510" width="106" height="40" as="geometry" />
        </mxCell>
        <mxCell id="spRLWSc7RttgzbPWyASP-62" style="rounded=0;orthogonalLoop=1;jettySize=auto;html=1;exitX=0.5;exitY=1;exitDx=0;exitDy=0;" parent="1" source="spRLWSc7RttgzbPWyASP-29" target="spRLWSc7RttgzbPWyASP-31" edge="1">
          <mxGeometry relative="1" as="geometry">
            <mxPoint x="1398.166666666667" y="370" as="targetPoint" />
          </mxGeometry>
        </mxCell>
        <mxCell id="7oj9rfEBmh7q5hDcnRv2-49" value="lanzado" style="edgeLabel;html=1;align=center;verticalAlign=middle;resizable=0;points=[];" vertex="1" connectable="0" parent="spRLWSc7RttgzbPWyASP-62">
          <mxGeometry x="-0.2362" relative="1" as="geometry">
            <mxPoint as="offset" />
          </mxGeometry>
        </mxCell>
        <mxCell id="7oj9rfEBmh7q5hDcnRv2-32" style="rounded=0;orthogonalLoop=1;jettySize=auto;html=1;" edge="1" parent="1" source="spRLWSc7RttgzbPWyASP-29" target="spRLWSc7RttgzbPWyASP-24">
          <mxGeometry relative="1" as="geometry" />
        </mxCell>
        <mxCell id="7oj9rfEBmh7q5hDcnRv2-70" value="plataforma" style="edgeLabel;html=1;align=center;verticalAlign=middle;resizable=0;points=[];" vertex="1" connectable="0" parent="7oj9rfEBmh7q5hDcnRv2-32">
          <mxGeometry x="-0.0069" y="-2" relative="1" as="geometry">
            <mxPoint as="offset" />
          </mxGeometry>
        </mxCell>
        <mxCell id="spRLWSc7RttgzbPWyASP-29" value="Minecraft" style="rounded=1;whiteSpace=wrap;html=1;" parent="1" vertex="1">
          <mxGeometry x="1107" y="440" width="106" height="40" as="geometry" />
        </mxCell>
        <mxCell id="spRLWSc7RttgzbPWyASP-31" value="2011" style="rounded=1;whiteSpace=wrap;html=1;" parent="1" vertex="1">
          <mxGeometry x="1140" y="510" width="106" height="40" as="geometry" />
        </mxCell>
        <mxCell id="7oj9rfEBmh7q5hDcnRv2-43" style="rounded=0;orthogonalLoop=1;jettySize=auto;html=1;" edge="1" parent="1" source="spRLWSc7RttgzbPWyASP-32" target="spRLWSc7RttgzbPWyASP-24">
          <mxGeometry relative="1" as="geometry" />
        </mxCell>
        <mxCell id="7oj9rfEBmh7q5hDcnRv2-72" value="plataforma" style="edgeLabel;html=1;align=center;verticalAlign=middle;resizable=0;points=[];" vertex="1" connectable="0" parent="7oj9rfEBmh7q5hDcnRv2-43">
          <mxGeometry x="0.0106" y="5" relative="1" as="geometry">
            <mxPoint y="1" as="offset" />
          </mxGeometry>
        </mxCell>
        <mxCell id="spRLWSc7RttgzbPWyASP-32" value="The Sims" style="rounded=1;whiteSpace=wrap;html=1;" parent="1" vertex="1">
          <mxGeometry x="1470" y="440" width="106" height="40" as="geometry" />
        </mxCell>
        <mxCell id="spRLWSc7RttgzbPWyASP-66" style="rounded=0;orthogonalLoop=1;jettySize=auto;html=1;entryX=0.5;entryY=0;entryDx=0;entryDy=0;" parent="1" source="spRLWSc7RttgzbPWyASP-32" target="spRLWSc7RttgzbPWyASP-34" edge="1">
          <mxGeometry relative="1" as="geometry">
            <mxPoint x="742" y="-70" as="sourcePoint" />
          </mxGeometry>
        </mxCell>
        <mxCell id="7oj9rfEBmh7q5hDcnRv2-51" value="lanzado" style="edgeLabel;html=1;align=center;verticalAlign=middle;resizable=0;points=[];" vertex="1" connectable="0" parent="spRLWSc7RttgzbPWyASP-66">
          <mxGeometry x="0.0902" relative="1" as="geometry">
            <mxPoint as="offset" />
          </mxGeometry>
        </mxCell>
        <mxCell id="spRLWSc7RttgzbPWyASP-34" value="2000" style="rounded=1;whiteSpace=wrap;html=1;" parent="1" vertex="1">
          <mxGeometry x="1470" y="540" width="106" height="40" as="geometry" />
        </mxCell>
        <mxCell id="7oj9rfEBmh7q5hDcnRv2-34" style="rounded=0;orthogonalLoop=1;jettySize=auto;html=1;" edge="1" parent="1" source="spRLWSc7RttgzbPWyASP-72" target="spRLWSc7RttgzbPWyASP-24">
          <mxGeometry relative="1" as="geometry" />
        </mxCell>
        <mxCell id="7oj9rfEBmh7q5hDcnRv2-71" value="plataforma" style="edgeLabel;html=1;align=center;verticalAlign=middle;resizable=0;points=[];" vertex="1" connectable="0" parent="7oj9rfEBmh7q5hDcnRv2-34">
          <mxGeometry x="0.0356" y="-1" relative="1" as="geometry">
            <mxPoint as="offset" />
          </mxGeometry>
        </mxCell>
        <mxCell id="spRLWSc7RttgzbPWyASP-72" value="Civilization" style="rounded=1;whiteSpace=wrap;html=1;" parent="1" vertex="1">
          <mxGeometry x="1270" y="440" width="106" height="40" as="geometry" />
        </mxCell>
        <mxCell id="spRLWSc7RttgzbPWyASP-73" style="rounded=0;orthogonalLoop=1;jettySize=auto;html=1;entryX=0.5;entryY=0;entryDx=0;entryDy=0;" parent="1" source="spRLWSc7RttgzbPWyASP-72" target="spRLWSc7RttgzbPWyASP-75" edge="1">
          <mxGeometry relative="1" as="geometry">
            <mxPoint x="1544.0000000000005" y="410" as="sourcePoint" />
          </mxGeometry>
        </mxCell>
        <mxCell id="7oj9rfEBmh7q5hDcnRv2-50" value="lanzado" style="edgeLabel;html=1;align=center;verticalAlign=middle;resizable=0;points=[];" vertex="1" connectable="0" parent="spRLWSc7RttgzbPWyASP-73">
          <mxGeometry x="-0.3059" y="3" relative="1" as="geometry">
            <mxPoint as="offset" />
          </mxGeometry>
        </mxCell>
        <mxCell id="spRLWSc7RttgzbPWyASP-75" value="1991" style="rounded=1;whiteSpace=wrap;html=1;" parent="1" vertex="1">
          <mxGeometry x="1270" y="520" width="106" height="40" as="geometry" />
        </mxCell>
        <mxCell id="7oj9rfEBmh7q5hDcnRv2-12" style="rounded=0;orthogonalLoop=1;jettySize=auto;html=1;" edge="1" parent="1" source="7oj9rfEBmh7q5hDcnRv2-9" target="spRLWSc7RttgzbPWyASP-23">
          <mxGeometry relative="1" as="geometry" />
        </mxCell>
        <mxCell id="7oj9rfEBmh7q5hDcnRv2-55" value="id" style="edgeLabel;html=1;align=center;verticalAlign=middle;resizable=0;points=[];" vertex="1" connectable="0" parent="7oj9rfEBmh7q5hDcnRv2-12">
          <mxGeometry x="-0.0541" y="-2" relative="1" as="geometry">
            <mxPoint x="1" as="offset" />
          </mxGeometry>
        </mxCell>
        <mxCell id="7oj9rfEBmh7q5hDcnRv2-20" style="rounded=0;orthogonalLoop=1;jettySize=auto;html=1;" edge="1" parent="1" source="7oj9rfEBmh7q5hDcnRv2-9" target="7oj9rfEBmh7q5hDcnRv2-16">
          <mxGeometry relative="1" as="geometry" />
        </mxCell>
        <mxCell id="7oj9rfEBmh7q5hDcnRv2-63" value="id" style="edgeLabel;html=1;align=center;verticalAlign=middle;resizable=0;points=[];" vertex="1" connectable="0" parent="7oj9rfEBmh7q5hDcnRv2-20">
          <mxGeometry x="-0.0539" y="-4" relative="1" as="geometry">
            <mxPoint as="offset" />
          </mxGeometry>
        </mxCell>
        <mxCell id="7oj9rfEBmh7q5hDcnRv2-9" value="FPS" style="rounded=1;whiteSpace=wrap;html=1;" vertex="1" parent="1">
          <mxGeometry x="710" y="320" width="106" height="40" as="geometry" />
        </mxCell>
        <mxCell id="7oj9rfEBmh7q5hDcnRv2-25" style="rounded=0;orthogonalLoop=1;jettySize=auto;html=1;" edge="1" parent="1" source="7oj9rfEBmh7q5hDcnRv2-16" target="spRLWSc7RttgzbPWyASP-24">
          <mxGeometry relative="1" as="geometry" />
        </mxCell>
        <mxCell id="7oj9rfEBmh7q5hDcnRv2-68" value="plataforma" style="edgeLabel;html=1;align=center;verticalAlign=middle;resizable=0;points=[];" vertex="1" connectable="0" parent="7oj9rfEBmh7q5hDcnRv2-25">
          <mxGeometry x="-0.0145" relative="1" as="geometry">
            <mxPoint as="offset" />
          </mxGeometry>
        </mxCell>
        <mxCell id="7oj9rfEBmh7q5hDcnRv2-36" style="rounded=0;orthogonalLoop=1;jettySize=auto;html=1;" edge="1" parent="1" source="7oj9rfEBmh7q5hDcnRv2-16" target="7oj9rfEBmh7q5hDcnRv2-35">
          <mxGeometry relative="1" as="geometry" />
        </mxCell>
        <mxCell id="7oj9rfEBmh7q5hDcnRv2-47" value="lanzado" style="edgeLabel;html=1;align=center;verticalAlign=middle;resizable=0;points=[];" vertex="1" connectable="0" parent="7oj9rfEBmh7q5hDcnRv2-36">
          <mxGeometry x="0.0447" y="2" relative="1" as="geometry">
            <mxPoint as="offset" />
          </mxGeometry>
        </mxCell>
        <mxCell id="7oj9rfEBmh7q5hDcnRv2-16" value="overwacth" style="rounded=1;whiteSpace=wrap;html=1;" vertex="1" parent="1">
          <mxGeometry x="787" y="450" width="106" height="40" as="geometry" />
        </mxCell>
        <mxCell id="7oj9rfEBmh7q5hDcnRv2-28" value="" style="rounded=0;orthogonalLoop=1;jettySize=auto;html=1;" edge="1" parent="1" source="spRLWSc7RttgzbPWyASP-10" target="spRLWSc7RttgzbPWyASP-15">
          <mxGeometry relative="1" as="geometry">
            <mxPoint x="103" y="450" as="sourcePoint" />
            <mxPoint x="175" y="790" as="targetPoint" />
          </mxGeometry>
        </mxCell>
        <mxCell id="7oj9rfEBmh7q5hDcnRv2-58" value="plataforma" style="edgeLabel;html=1;align=center;verticalAlign=middle;resizable=0;points=[];" vertex="1" connectable="0" parent="7oj9rfEBmh7q5hDcnRv2-28">
          <mxGeometry x="0.0063" y="-7" relative="1" as="geometry">
            <mxPoint as="offset" />
          </mxGeometry>
        </mxCell>
        <mxCell id="spRLWSc7RttgzbPWyASP-12" value="1985" style="rounded=1;whiteSpace=wrap;html=1;" parent="1" vertex="1">
          <mxGeometry x="20" y="570" width="106" height="40" as="geometry" />
        </mxCell>
        <mxCell id="7oj9rfEBmh7q5hDcnRv2-35" value="2016" style="rounded=1;whiteSpace=wrap;html=1;" vertex="1" parent="1">
          <mxGeometry x="787" y="565" width="106" height="40" as="geometry" />
        </mxCell>
      </root>
    </mxGraphModel>
  </diagram>
</mxfile>
